<svg width="71" height="36" viewBox="0 0 71 36" fill="none" xmlns="http://www.w3.org/2000/svg">
<g filter="url(#filter0_d_337_3754)">
<path d="M14.0147 19.44C15.8147 19.44 17.4947 18.92 18.8947 17.96C16.0947 24.88 10.9747 26.76 10.9747 26.76L11.0947 27.12C22.0547 23.36 23.2147 15 23.2147 11.64C23.2147 10.72 23.1347 10.16 23.1347 10.16C22.6547 4.96 19.0547 0.879998 14.0147 0.879998C8.97469 0.879998 4.85469 5 4.85469 10.16C4.85469 15.28 8.97469 19.44 14.0147 19.44ZM14.0147 1.16C17.4947 1.16 20.3347 5.16 20.3347 10.16C20.3347 10.32 20.3347 10.52 20.2947 10.72C20.0947 15.44 17.3747 19.16 14.0147 19.16C10.4947 19.16 7.69469 15.12 7.69469 10.16C7.69469 5.16 10.4947 1.16 14.0147 1.16ZM27.2313 24.2C26.8713 24.2 26.5513 24.32 26.2713 24.6C25.9913 24.88 25.8313 25.2 25.8313 25.6C25.8313 25.96 25.9913 26.28 26.2713 26.56C26.5513 26.84 26.8713 27 27.2313 27C27.5913 27 27.9513 26.84 28.2313 26.56C28.5113 26.28 28.6313 25.96 28.6313 25.6C28.6313 25.2 28.5113 24.88 28.2313 24.6C27.9513 24.32 27.5913 24.2 27.2313 24.2ZM45.5031 25.96C45.0631 25.52 44.7831 24.88 44.7831 24.2V0.879998L39.5031 3.68L39.6231 3.92L40.1431 3.68C40.4231 3.52 40.7031 3.44 40.9431 3.44C41.5831 3.44 42.0231 3.92 42.0231 4.52V24.2C42.0231 25.6 40.8631 26.72 39.5031 26.72V27H47.3031V26.72C46.5831 26.72 45.9831 26.44 45.5031 25.96ZM66.9369 19.52V19.24H64.4169V7.32L61.6569 8.8V19.24H48.8969C58.0569 11.56 58.0969 1.08 58.0969 0.879998L54.2169 2.04C54.2969 2.92 54.3369 3.8 54.3369 4.6C54.3369 14.64 48.0969 19.52 48.0969 19.52H61.6569V24.2C61.6569 25.6 60.5369 26.72 59.1369 26.72V27H66.9369V26.72C66.2169 26.72 65.6169 26.44 65.1369 25.96C64.6969 25.52 64.4169 24.88 64.4169 24.2V19.52H66.9369Z" fill="#004628"/>
<path d="M18.8947 17.96L19.8217 18.3351L21.0667 15.2581L18.3292 17.1353L18.8947 17.96ZM10.9747 26.76L10.63 25.8213L9.71917 26.1557L10.026 27.0762L10.9747 26.76ZM11.0947 27.12L10.146 27.4362L10.465 28.3932L11.4192 28.0659L11.0947 27.12ZM23.1347 10.16L22.1389 10.2519L22.1412 10.2767L22.1447 10.3014L23.1347 10.16ZM20.2947 10.72L19.3141 10.5239L19.2989 10.6001L19.2956 10.6777L20.2947 10.72ZM14.0147 20.44C16.0101 20.44 17.8885 19.8625 19.4602 18.7847L18.3292 17.1353C17.1009 17.9775 15.6193 18.44 14.0147 18.44V20.44ZM17.9677 17.5849C16.6383 20.8704 14.7684 22.9386 13.2511 24.1814C12.4907 24.8041 11.8168 25.2211 11.3413 25.4793C11.1036 25.6083 10.916 25.6974 10.7926 25.7525C10.7309 25.7801 10.6853 25.7991 10.6576 25.8103C10.6437 25.8159 10.6344 25.8195 10.6297 25.8214C10.6274 25.8223 10.6262 25.8227 10.6262 25.8227C10.6263 25.8227 10.6266 25.8225 10.6272 25.8223C10.6275 25.8222 10.6279 25.8221 10.6284 25.8219C10.6286 25.8218 10.629 25.8216 10.6291 25.8216C10.6296 25.8214 10.63 25.8213 10.9747 26.76C11.3194 27.6987 11.3199 27.6985 11.3204 27.6984C11.3206 27.6983 11.3211 27.6981 11.3215 27.6979C11.3222 27.6977 11.3231 27.6973 11.324 27.697C11.3259 27.6963 11.3281 27.6955 11.3306 27.6945C11.3356 27.6927 11.3418 27.6903 11.3492 27.6874C11.3641 27.6817 11.3838 27.674 11.4081 27.6641C11.4568 27.6444 11.5239 27.6163 11.6077 27.5789C11.7752 27.5041 12.0095 27.3923 12.2956 27.2369C12.8676 26.9264 13.6487 26.4408 14.5183 25.7286C16.261 24.3014 18.3511 21.9696 19.8217 18.3351L17.9677 17.5849ZM10.026 27.0762L10.146 27.4362L12.0434 26.8038L11.9234 26.4438L10.026 27.0762ZM11.4192 28.0659C17.1253 26.1083 20.3545 22.9189 22.1383 19.7166C23.9084 16.5391 24.2147 13.4241 24.2147 11.64H22.2147C22.2147 13.2159 21.941 15.9609 20.3911 18.7434C18.8549 21.5011 16.0241 24.3717 10.7702 26.1741L11.4192 28.0659ZM24.2147 11.64C24.2147 11.1512 24.1934 10.755 24.1716 10.4768C24.1607 10.3376 24.1496 10.2278 24.141 10.1504C24.1366 10.1117 24.1329 10.0811 24.1301 10.059C24.1286 10.048 24.1275 10.0391 24.1265 10.0323C24.1261 10.0289 24.1257 10.0261 24.1254 10.0238C24.1252 10.0226 24.1251 10.0216 24.125 10.0208C24.1249 10.0203 24.1248 10.0199 24.1248 10.0196C24.1248 10.0194 24.1247 10.0192 24.1247 10.019C24.1247 10.019 24.1247 10.0188 24.1247 10.0188C24.1247 10.0187 24.1246 10.0186 23.1347 10.16C22.1447 10.3014 22.1447 10.3013 22.1447 10.3012C22.1447 10.3012 22.1447 10.3011 22.1447 10.301C22.1447 10.3009 22.1446 10.3007 22.1446 10.3006C22.1446 10.3004 22.1446 10.3002 22.1445 10.3C22.1445 10.2997 22.1445 10.2995 22.1445 10.2995C22.1444 10.2994 22.1445 10.2998 22.1446 10.3007C22.1449 10.3026 22.1454 10.3066 22.1462 10.3127C22.1478 10.3248 22.1503 10.3451 22.1534 10.3733C22.1597 10.4297 22.1687 10.5174 22.1777 10.6332C22.1959 10.865 22.2147 11.2088 22.2147 11.64H24.2147ZM24.1305 10.0681C23.6151 4.48518 19.6937 -0.120003 14.0147 -0.120003V1.88C18.4157 1.88 21.6943 5.43482 22.1389 10.2519L24.1305 10.0681ZM14.0147 -0.120003C8.41394 -0.120003 3.85469 4.45621 3.85469 10.16H5.85469C5.85469 5.54378 9.53543 1.88 14.0147 1.88V-0.120003ZM3.85469 10.16C3.85469 15.821 8.41114 20.44 14.0147 20.44V18.44C9.53823 18.44 5.85469 14.739 5.85469 10.16H3.85469ZM14.0147 2.16C15.3424 2.16 16.6481 2.92165 17.6622 4.36099C18.6745 5.79758 19.3347 7.84056 19.3347 10.16H21.3347C21.3347 7.47943 20.5749 5.02242 19.2971 3.20901C18.0213 1.39835 16.167 0.159999 14.0147 0.159999V2.16ZM19.3347 10.16C19.3347 10.3303 19.3319 10.4349 19.3141 10.5239L21.2753 10.9161C21.3375 10.6051 21.3347 10.3097 21.3347 10.16H19.3347ZM19.2956 10.6777C19.2028 12.8664 18.5263 14.777 17.5359 16.1151C16.5455 17.4532 15.2968 18.16 14.0147 18.16V20.16C16.0925 20.16 17.8838 19.0068 19.1435 17.3049C20.4031 15.603 21.1865 13.2936 21.2938 10.7623L19.2956 10.6777ZM14.0147 18.16C12.6686 18.16 11.3635 17.3901 10.3542 15.9469C9.34589 14.5052 8.69469 12.4613 8.69469 10.16H6.69469C6.69469 12.8187 7.44349 15.2748 8.71522 17.0931C9.98588 18.9099 11.8408 20.16 14.0147 20.16V18.16ZM8.69469 10.16C8.69469 7.83744 9.34652 5.79445 10.3533 4.35931C11.3605 2.92371 12.665 2.16 14.0147 2.16V0.159999C11.8444 0.159999 9.98892 1.39629 8.71605 3.21069C7.44285 5.02555 6.69469 7.48255 6.69469 10.16H8.69469ZM26.2713 26.56L26.9784 25.8529L26.2713 26.56ZM28.2313 26.56L27.5241 25.8529L28.2313 26.56ZM27.2313 23.2C26.616 23.2 26.0386 23.4185 25.5641 23.8929L26.9784 25.3071C27.0318 25.2536 27.0714 25.2321 27.0976 25.2215C27.1245 25.2106 27.1647 25.2 27.2313 25.2V23.2ZM25.5641 23.8929C25.1326 24.3244 24.8312 24.8878 24.8312 25.6H26.8312C26.8312 25.5122 26.8499 25.4356 26.9784 25.3071L25.5641 23.8929ZM24.8312 25.6C24.8312 26.2874 25.1457 26.8487 25.5641 27.2671L26.9784 25.8529C26.8368 25.7113 26.8312 25.6326 26.8312 25.6H24.8312ZM25.5641 27.2671C25.9826 27.6855 26.5438 28 27.2313 28V26C27.1987 26 27.1199 25.9945 26.9784 25.8529L25.5641 27.2671ZM27.2313 28C27.8885 28 28.4947 27.7107 28.9384 27.2671L27.5241 25.8529C27.4078 25.9693 27.294 26 27.2313 26V28ZM28.9384 27.2671C29.4128 26.7927 29.6312 26.2153 29.6312 25.6H27.6312C27.6312 25.6665 27.6207 25.7068 27.6098 25.7336C27.5991 25.7598 27.5776 25.7994 27.5241 25.8529L28.9384 27.2671ZM29.6312 25.6C29.6312 24.9605 29.4233 24.3778 28.9384 23.8929L27.5241 25.3071C27.5992 25.3822 27.6312 25.4395 27.6312 25.6H29.6312ZM28.9384 23.8929C28.4437 23.3982 27.8155 23.2 27.2313 23.2V25.2C27.367 25.2 27.4588 25.2418 27.5241 25.3071L28.9384 23.8929ZM45.5031 25.96L44.796 26.6671L45.5031 25.96ZM44.7831 0.879997H45.7831V-0.782216L44.3146 -0.0034647L44.7831 0.879997ZM39.5031 3.68L39.0346 2.79654L38.1721 3.25395L38.6087 4.12721L39.5031 3.68ZM39.6231 3.92L38.7287 4.36721L39.1622 5.23413L40.0422 4.82796L39.6231 3.92ZM40.1431 3.68L40.5622 4.58796L40.6016 4.56977L40.6393 4.54824L40.1431 3.68ZM39.5031 26.72V25.72H38.5031V26.72H39.5031ZM39.5031 27H38.5031V28H39.5031V27ZM47.3031 27V28H48.3031V27H47.3031ZM47.3031 26.72H48.3031V25.72H47.3031V26.72ZM46.2102 25.2529C45.9556 24.9983 45.7831 24.6118 45.7831 24.2H43.7831C43.7831 25.1482 44.1706 26.0417 44.796 26.6671L46.2102 25.2529ZM45.7831 24.2V0.879997H43.7831V24.2H45.7831ZM44.3146 -0.0034647L39.0346 2.79654L39.9716 4.56346L45.2516 1.76346L44.3146 -0.0034647ZM38.6087 4.12721L38.7287 4.36721L40.5176 3.47278L40.3976 3.23278L38.6087 4.12721ZM40.0422 4.82796L40.5622 4.58796L39.7241 2.77204L39.2041 3.01204L40.0422 4.82796ZM40.6393 4.54824C40.8041 4.45404 40.9143 4.44 40.9431 4.44V2.44C40.4919 2.44 40.0421 2.58595 39.647 2.81176L40.6393 4.54824ZM40.9431 4.44C40.9769 4.44 40.9938 4.44603 40.9991 4.44823C41.0047 4.45053 41.0063 4.45225 41.0069 4.45286C41.0078 4.45374 41.0111 4.45737 41.0147 4.46642C41.0182 4.47542 41.0231 4.49268 41.0231 4.52H43.0231C43.0231 3.39236 42.1597 2.44 40.9431 2.44V4.44ZM41.0231 4.52V24.2H43.0231V4.52H41.0231ZM41.0231 24.2C41.0231 25.0374 40.3212 25.72 39.5031 25.72V27.72C41.4051 27.72 43.0231 26.1626 43.0231 24.2H41.0231ZM38.5031 26.72V27H40.5031V26.72H38.5031ZM39.5031 28H47.3031V26H39.5031V28ZM48.3031 27V26.72H46.3031V27H48.3031ZM47.3031 25.72C46.8713 25.72 46.5196 25.5622 46.2102 25.2529L44.796 26.6671C45.4467 27.3178 46.295 27.72 47.3031 27.72V25.72ZM66.9369 19.52V20.52H67.9369V19.52H66.9369ZM66.9369 19.24H67.9369V18.24H66.9369V19.24ZM64.4169 19.24H63.4169V20.24H64.4169V19.24ZM64.4169 7.32H65.4169V5.64907L63.9443 6.43871L64.4169 7.32ZM61.6569 8.8L61.1843 7.91871L60.6569 8.20153V8.8H61.6569ZM61.6569 19.24V20.24H62.6569V19.24H61.6569ZM48.8969 19.24L48.2544 18.4737L46.1477 20.24H48.8969V19.24ZM58.0969 0.879997H59.0969V-0.462707L57.8104 -0.0781002L58.0969 0.879997ZM54.2169 2.04L53.9304 1.0819L53.1469 1.31614L53.221 2.13054L54.2169 2.04ZM48.0969 19.52L47.4808 18.7323L45.1949 20.52H48.0969V19.52ZM61.6569 19.52H62.6569V18.52H61.6569V19.52ZM59.1369 26.72V25.72H58.1369V26.72H59.1369ZM59.1369 27H58.1369V28H59.1369V27ZM66.9369 27V28H67.9369V27H66.9369ZM66.9369 26.72H67.9369V25.72H66.9369V26.72ZM65.1369 25.96L64.4298 26.6671L65.1369 25.96ZM64.4169 19.52V18.52H63.4169V19.52H64.4169ZM67.9369 19.52V19.24H65.9369V19.52H67.9369ZM66.9369 18.24H64.4169V20.24H66.9369V18.24ZM65.4169 19.24V7.32H63.4169V19.24H65.4169ZM63.9443 6.43871L61.1843 7.91871L62.1295 9.68129L64.8895 8.20129L63.9443 6.43871ZM60.6569 8.8V19.24H62.6569V8.8H60.6569ZM61.6569 18.24H48.8969V20.24H61.6569V18.24ZM49.5394 20.0063C59.0489 12.0332 59.0969 1.16496 59.0969 0.879997H57.0969C57.0969 0.995045 57.0649 11.0868 48.2544 18.4737L49.5394 20.0063ZM57.8104 -0.0781002L53.9304 1.0819L54.5033 2.9981L58.3833 1.8381L57.8104 -0.0781002ZM53.221 2.13054C53.2984 2.98198 53.3369 3.83174 53.3369 4.6H55.3369C55.3369 3.76826 55.2954 2.85802 55.2128 1.94946L53.221 2.13054ZM53.3369 4.6C53.3369 9.40181 51.8472 12.9495 50.3709 15.2918C49.6313 16.4652 48.8941 17.3372 48.3477 17.911C48.0746 18.1978 47.8499 18.4094 47.6973 18.5463C47.621 18.6147 47.5628 18.6644 47.5257 18.6954C47.5072 18.7109 47.4939 18.7217 47.4863 18.7279C47.4825 18.7309 47.4801 18.7328 47.4792 18.7336C47.4787 18.7339 47.4786 18.734 47.4789 18.7338C47.479 18.7337 47.4793 18.7335 47.4796 18.7333C47.4797 18.7331 47.4801 18.7329 47.4801 18.7328C47.4805 18.7326 47.4808 18.7323 48.0969 19.52C48.7129 20.3077 48.7133 20.3074 48.7138 20.3071C48.7139 20.3069 48.7144 20.3066 48.7147 20.3063C48.7154 20.3057 48.7162 20.3051 48.7171 20.3044C48.7189 20.303 48.7211 20.3013 48.7236 20.2993C48.7287 20.2952 48.7353 20.29 48.7433 20.2835C48.7593 20.2706 48.781 20.2528 48.8082 20.2301C48.8625 20.1847 48.9384 20.1197 49.0327 20.0351C49.2213 19.8659 49.4841 19.6179 49.7961 19.2902C50.4197 18.6353 51.2425 17.6598 52.0629 16.3582C53.7065 13.7505 55.3369 9.83819 55.3369 4.6H53.3369ZM48.0969 20.52H61.6569V18.52H48.0969V20.52ZM60.6569 19.52V24.2H62.6569V19.52H60.6569ZM60.6569 24.2C60.6569 25.0477 59.9846 25.72 59.1369 25.72V27.72C61.0892 27.72 62.6569 26.1523 62.6569 24.2H60.6569ZM58.1369 26.72V27H60.1369V26.72H58.1369ZM59.1369 28H66.9369V26H59.1369V28ZM67.9369 27V26.72H65.9369V27H67.9369ZM66.9369 25.72C66.505 25.72 66.1533 25.5622 65.844 25.2529L64.4298 26.6671C65.0804 27.3178 65.9287 27.72 66.9369 27.72V25.72ZM65.844 25.2529C65.5894 24.9983 65.4169 24.6118 65.4169 24.2H63.4169C63.4169 25.1482 63.8044 26.0417 64.4298 26.6671L65.844 25.2529ZM65.4169 24.2V19.52H63.4169V24.2H65.4169ZM64.4169 20.52H66.9369V18.52H64.4169V20.52Z" fill="#004628"/>
</g>
<defs>
<filter id="filter0_d_337_3754" x="0.854736" y="0.879883" width="70.082" height="34.2402" filterUnits="userSpaceOnUse" color-interpolation-filters="sRGB">
<feFlood flood-opacity="0" result="BackgroundImageFix"/>
<feColorMatrix in="SourceAlpha" type="matrix" values="0 0 0 0 0 0 0 0 0 0 0 0 0 0 0 0 0 0 127 0" result="hardAlpha"/>
<feOffset dy="4"/>
<feGaussianBlur stdDeviation="2"/>
<feComposite in2="hardAlpha" operator="out"/>
<feColorMatrix type="matrix" values="0 0 0 0 0 0 0 0 0 0 0 0 0 0 0 0 0 0 0.25 0"/>
<feBlend mode="normal" in2="BackgroundImageFix" result="effect1_dropShadow_337_3754"/>
<feBlend mode="normal" in="SourceGraphic" in2="effect1_dropShadow_337_3754" result="shape"/>
</filter>
</defs>
</svg>
